<svg width="188" height="53" fill="none" xmlns="http://www.w3.org/2000/svg"><path d="M182.583 1.198c2.317 0 4.207 1.858 4.207 4.134V47.69c0 2.277-1.89 4.104-4.177 4.104H5.458c-2.317 0-4.208-1.857-4.208-4.104V5.332c-.03-2.276 1.86-4.134 4.177-4.134h177.156zm0-1.198H5.427C2.44 0 0 2.367 0 5.332V47.69c0 2.936 2.44 5.302 5.427 5.302h177.156c2.988 0 5.397-2.366 5.397-5.302V5.332C188.01 2.367 185.571 0 182.583 0z" fill="#2E4567"/><path d="M40.837 25.868c-.039-4.47 3.725-6.649 3.9-6.746-2.133-3.055-5.44-3.474-6.605-3.504-2.781-.285-5.47 1.632-6.887 1.632-1.44 0-3.62-1.602-5.974-1.557-3.024.045-5.85 1.767-7.397 4.432-3.2 5.443-.816 13.44 2.255 17.841 1.531 2.157 3.322 4.56 5.668 4.478 2.293-.09 3.154-1.438 5.92-1.438 2.743 0 3.55 1.438 5.943 1.385 2.46-.037 4.015-2.163 5.493-4.335 1.775-2.47 2.483-4.904 2.514-5.023-.053-.038-4.777-1.805-4.83-7.165zM36.319 12.72c1.234-1.52 2.08-3.58 1.843-5.676-1.782.075-4.022 1.213-5.302 2.696-1.136 1.31-2.156 3.451-1.89 5.465 2.004.15 4.061-.996 5.349-2.486zm37.758 29.409H70.87l-1.76-5.42h-6.103l-1.676 5.42h-3.124l6.05-18.463h3.733l6.087 18.463zm-5.493-7.704l-1.592-4.822c-.168-.494-.488-1.654-.945-3.481h-.053a147.66 147.66 0 01-.892 3.481l-1.562 4.822h5.044zm21.02.883c0 2.261-.625 4.05-1.874 5.368-1.12 1.168-2.514 1.752-4.175 1.752-1.798 0-3.086-.628-3.87-1.886v6.985h-3.01V33.19c0-1.423-.038-2.883-.114-4.373h2.651l.168 2.111h.053c1.006-1.587 2.53-2.388 4.571-2.388 1.6 0 2.933.622 4 1.864 1.067 1.243 1.6 2.875 1.6 4.904zm-3.07.105c0-1.295-.297-2.366-.892-3.204-.647-.876-1.523-1.31-2.62-1.31-.74 0-1.418.247-2.02.726a3.37 3.37 0 00-1.18 1.901c-.084.292-.13.6-.138.899v2.224c0 .965.305 1.781.907 2.455.602.667 1.387 1.004 2.354 1.004 1.136 0 2.02-.435 2.652-1.288.624-.869.937-2 .937-3.407zm18.65-.105c0 2.261-.624 4.05-1.874 5.368-1.12 1.168-2.514 1.752-4.175 1.752-1.798 0-3.085-.628-3.87-1.886v6.985h-3.01V33.19c0-1.423-.038-2.883-.114-4.373h2.651l.168 2.111h.053c1.006-1.587 2.53-2.388 4.572-2.388 1.6 0 2.933.622 3.999 1.864 1.067 1.243 1.6 2.875 1.6 4.904zm-3.062.105c0-1.295-.297-2.366-.892-3.204-.647-.876-1.523-1.31-2.62-1.31-.74 0-1.418.247-2.027.726a3.37 3.37 0 00-1.181 1.901c-.091.367-.145.667-.145.899v2.224c0 .965.305 1.781.907 2.455.602.667 1.386 1.004 2.362 1.004 1.135 0 2.019-.435 2.651-1.288.625-.869.945-2 .945-3.407zm20.486 1.535c0 1.572-.556 2.852-1.668 3.833-1.219 1.078-2.933 1.617-5.12 1.617-2.019 0-3.642-.381-4.868-1.153l.693-2.463c1.318.772 2.773 1.153 4.35 1.153 1.136 0 2.019-.254 2.652-.756.632-.502.952-1.175.952-2.014 0-.749-.267-1.377-.785-1.894-.518-.51-1.379-.988-2.59-1.423-3.291-1.205-4.937-2.972-4.937-5.285 0-1.513.579-2.756 1.745-3.721 1.158-.966 2.697-1.453 4.617-1.453 1.706 0 3.131.292 4.266.876l-.754 2.41c-1.067-.568-2.263-.845-3.611-.845-1.059 0-1.897.255-2.492.764-.503.456-.754 1.01-.754 1.67 0 .725.29 1.332.869 1.803.502.435 1.409.914 2.727 1.423 1.615.644 2.804 1.385 3.566 2.246.762.869 1.142 1.94 1.142 3.212zm9.981-5.915h-3.322v6.462c0 1.647.587 2.463 1.76 2.463.541 0 .983-.045 1.341-.135l.084 2.246c-.594.217-1.371.33-2.339.33-1.189 0-2.118-.36-2.789-1.071-.67-.711-1.005-1.91-1.005-3.586v-6.709h-1.981v-2.216h1.973v-2.44l2.956-.877v3.317h3.322v2.216zm14.94 4.328c0 2.044-.594 3.728-1.782 5.039-1.242 1.355-2.896 2.028-4.96 2.028-1.989 0-3.573-.65-4.754-1.939-1.181-1.295-1.768-2.935-1.768-4.904 0-2.066.61-3.75 1.829-5.068 1.219-1.318 2.857-1.97 4.921-1.97 1.989 0 3.589.652 4.793 1.947 1.15 1.25 1.721 2.875 1.721 4.867zm-3.116.067c0-1.22-.266-2.268-.807-3.137-.633-1.055-1.532-1.587-2.705-1.587-1.204 0-2.133.531-2.758 1.587-.541.876-.807 1.94-.807 3.197 0 1.22.266 2.269.807 3.145.648 1.055 1.562 1.587 2.735 1.587 1.151 0 2.05-.54 2.705-1.61.548-.906.83-1.962.83-3.182zm12.906-4.013a5.753 5.753 0 00-.952-.082c-1.059 0-1.874.39-2.453 1.175-.503.697-.754 1.572-.754 2.628v6.985h-3.01v-9.119c0-1.4-.023-2.792-.084-4.192h2.621l.107 2.545h.084c.32-.876.815-1.58 1.508-2.111a3.66 3.66 0 012.179-.711c.282 0 .526.022.754.052v2.83zm13.463 3.422c.007.449-.031.898-.107 1.34h-9.028c.03 1.318.472 2.32 1.31 3.017.762.621 1.745.928 2.956.928 1.341 0 2.56-.21 3.657-.628l.473 2.051c-1.28.547-2.796.823-4.541.823-2.103 0-3.748-.606-4.952-1.819-1.196-1.213-1.798-2.845-1.798-4.889 0-2.006.556-3.676 1.676-5.008 1.166-1.423 2.75-2.134 4.739-2.134 1.95 0 3.428.711 4.434 2.133.785 1.131 1.181 2.531 1.181 4.186zm-2.865-.764c.023-.876-.175-1.632-.587-2.276-.518-.824-1.325-1.235-2.399-1.235-.983 0-1.783.404-2.4 1.205-.503.636-.8 1.408-.892 2.299l6.278.007zM62.138 17.137a19.86 19.86 0 01-2.163-.104V8.1a16.202 16.202 0 012.552-.187c3.451 0 5.043 1.67 5.043 4.387-.007 3.144-1.889 4.836-5.432 4.836zm.503-8.078c-.465 0-.86.03-1.188.097v6.784c.175.03.518.037.998.037 2.262 0 3.55-1.265 3.55-3.631 0-2.111-1.166-3.287-3.36-3.287zm9.874 8.146c-1.943 0-3.207-1.43-3.207-3.37 0-2.02 1.287-3.458 3.314-3.458 1.92 0 3.207 1.362 3.207 3.354.008 2.044-1.325 3.474-3.314 3.474zm.061-5.765c-1.067 0-1.752.98-1.752 2.358 0 1.348.7 2.329 1.737 2.329 1.043 0 1.737-1.048 1.737-2.359 0-1.332-.686-2.328-1.722-2.328zm14.354-.928l-2.08 6.543h-1.356l-.861-2.837c-.214-.697-.396-1.4-.534-2.112h-.03c-.107.712-.312 1.43-.533 2.112l-.915 2.837H79.25l-1.958-6.543h1.524l.754 3.107c.175.74.328 1.437.45 2.103h.03c.107-.554.29-1.235.549-2.088l.944-3.123h1.204l.907 3.055c.22.741.396 1.468.533 2.156h.038c.1-.673.244-1.385.45-2.156l.807-3.055h1.448zm7.664 6.543h-1.478v-3.758c0-1.16-.45-1.737-1.34-1.737-.877 0-1.479.74-1.479 1.602v3.893H88.82v-4.672c0-.576-.015-1.198-.053-1.871h1.303l.068 1.01h.038c.397-.696 1.204-1.145 2.11-1.145 1.395 0 2.317 1.048 2.317 2.762l-.008 3.916zm4.084 0H97.2V7.51h1.478v9.546zm5.394.15c-1.943 0-3.208-1.43-3.208-3.37 0-2.02 1.288-3.458 3.315-3.458 1.919 0 3.207 1.362 3.207 3.354 0 2.044-1.326 3.474-3.314 3.474zm.053-5.765c-1.066 0-1.752.98-1.752 2.358 0 1.348.701 2.329 1.737 2.329 1.044 0 1.737-1.048 1.737-2.359.008-1.332-.678-2.328-1.722-2.328zm9.097 5.615l-.107-.756h-.038c-.449.606-1.112.898-1.95.898-1.196 0-2.042-.823-2.042-1.924 0-1.617 1.425-2.448 3.893-2.448v-.12c0-.86-.465-1.295-1.379-1.295-.655 0-1.234.165-1.737.487l-.297-.959c.617-.374 1.387-.569 2.286-.569 1.737 0 2.62.899 2.62 2.703v2.426c0 .659.031 1.175.099 1.565l-1.348-.008zm-.206-3.257c-1.645 0-2.468.39-2.468 1.318 0 .689.426 1.026 1.013 1.026.754 0 1.455-.562 1.455-1.333v-1.01zm8.632 3.257l-.068-1.048h-.038c-.427.794-1.143 1.198-2.141 1.198-1.608 0-2.796-1.385-2.796-3.34 0-2.043 1.234-3.488 2.918-3.488.891 0 1.523.292 1.874.89h.03V7.51h1.478v7.78c0 .628.016 1.227.054 1.759l-1.311.007zm-.221-3.848c0-.914-.617-1.7-1.561-1.7-1.098 0-1.768.959-1.768 2.299 0 1.318.693 2.223 1.737 2.223.93 0 1.592-.793 1.592-1.737v-1.085zm10.872 3.998c-1.942 0-3.207-1.43-3.207-3.37 0-2.02 1.287-3.458 3.314-3.458 1.92 0 3.207 1.362 3.207 3.354.008 2.044-1.325 3.474-3.314 3.474zm.054-5.765c-1.067 0-1.753.98-1.753 2.358 0 1.348.701 2.329 1.737 2.329 1.044 0 1.737-1.048 1.737-2.359.008-1.332-.678-2.328-1.721-2.328zm11.222 5.615h-1.478v-3.758c0-1.16-.45-1.737-1.341-1.737-.876 0-1.478.74-1.478 1.602v3.893H137.8v-4.672c0-.576-.015-1.198-.053-1.871h1.302l.069 1.01h.038c.396-.696 1.204-1.145 2.111-1.145 1.394 0 2.316 1.048 2.316 2.762v3.916h-.008zm9.958-5.45h-1.631v3.174c0 .809.282 1.213.861 1.213.259 0 .48-.03.655-.067l.039 1.1c-.29.105-.671.165-1.151.165-1.166 0-1.867-.629-1.867-2.291v-3.294h-.959V10.51h.975V9.314l1.455-.435v1.633h1.63l-.007 1.093zm7.832 5.45h-1.478v-3.728c0-1.168-.45-1.76-1.341-1.76-.77 0-1.478.51-1.478 1.55v3.946h-1.478V7.509h1.478v3.93h.03c.465-.71 1.143-1.062 2.004-1.062 1.409 0 2.27 1.078 2.27 2.785l-.007 3.893zm8.03-2.92h-4.442c.031 1.236.861 1.94 2.095 1.94.656 0 1.265-.105 1.798-.308l.229 1.011c-.632.27-1.371.404-2.232.404-2.08 0-3.315-1.295-3.315-3.294 0-2.006 1.265-3.511 3.147-3.511 1.699 0 2.766 1.235 2.766 3.107.007.217-.008.434-.046.651zm-1.364-1.033c0-1.01-.518-1.722-1.463-1.722-.853 0-1.523.726-1.615 1.722h3.078z" fill="#2E4567"/></svg>