<svg width="114" height="32" fill="none" xmlns="http://www.w3.org/2000/svg"><g clip-path="url(#clip0)" fill="#fff"><path d="M110.239.723c1.399 0 2.54 1.122 2.54 2.496v25.575c0 1.375-1.141 2.478-2.522 2.478H3.295c-1.399 0-2.54-1.122-2.54-2.478V3.219C.736 1.845 1.878.723 3.277.723h106.962zm0-.723H3.277C1.473 0 0 1.429 0 3.22v25.574c0 1.772 1.473 3.201 3.277 3.201h106.962c1.804 0 3.258-1.429 3.258-3.201V3.219C113.515 1.43 112.043 0 110.239 0z"/><path d="M24.656 15.618c-.023-2.699 2.25-4.014 2.355-4.073-1.288-1.844-3.284-2.097-3.988-2.115-1.679-.172-3.303.985-4.158.985-.87 0-2.185-.967-3.607-.94-1.826.027-3.532 1.067-4.466 2.676-1.932 3.286-.492 8.114 1.361 10.772.925 1.302 2.006 2.753 3.423 2.703 1.384-.054 1.904-.867 3.574-.867 1.656 0 2.144.867 3.588.836 1.486-.023 2.424-1.307 3.317-2.617 1.071-1.492 1.5-2.961 1.518-3.034-.033-.022-2.885-1.09-2.917-4.326zM21.928 7.68c.745-.917 1.256-2.16 1.113-3.426-1.076.045-2.428.732-3.201 1.627-.686.791-1.302 2.084-1.14 3.3 1.209.09 2.45-.601 3.228-1.5zm22.798 17.757h-1.937l-1.062-3.273h-3.685l-1.012 3.273h-1.886l3.652-11.148h2.254l3.676 11.148zm-3.317-4.652l-.961-2.911c-.101-.298-.295-.999-.57-2.102h-.033c-.11.475-.294 1.175-.538 2.102l-.943 2.911h3.045zm12.692.534c0 1.365-.378 2.445-1.132 3.24-.676.706-1.518 1.058-2.52 1.058-1.086 0-1.864-.38-2.338-1.139v4.218h-1.817v-8.657c0-.859-.023-1.74-.069-2.64h1.601l.101 1.275h.033c.607-.958 1.527-1.442 2.76-1.442.966 0 1.77.375 2.415 1.126.644.75.966 1.735.966 2.96zm-1.854.063c0-.782-.18-1.429-.538-1.935-.391-.529-.92-.791-1.583-.791-.446 0-.855.15-1.219.439a2.035 2.035 0 00-.713 1.148c-.05.176-.078.361-.083.542v1.343c0 .583.184 1.076.548 1.482.363.403.837.606 1.421.606.686 0 1.22-.262 1.601-.777.377-.525.566-1.207.566-2.057zm11.26-.063c0 1.365-.377 2.445-1.131 3.24-.676.706-1.518 1.058-2.52 1.058-1.086 0-1.864-.38-2.338-1.139v4.218h-1.817v-8.657c0-.859-.023-1.74-.069-2.64h1.601l.101 1.275h.033c.607-.958 1.527-1.442 2.76-1.442.966 0 1.77.375 2.415 1.126.644.75.966 1.735.966 2.96zm-1.849.063c0-.782-.179-1.429-.538-1.935-.39-.529-.92-.791-1.582-.791-.446 0-.856.15-1.224.439a2.035 2.035 0 00-.713 1.148 2.394 2.394 0 00-.087.542v1.343c0 .583.184 1.076.547 1.482.364.403.837.606 1.426.606.686 0 1.22-.262 1.601-.777.377-.525.57-1.207.57-2.057zm12.37.926c0 .95-.336 1.723-1.008 2.315-.736.65-1.77.976-3.09.976-1.22 0-2.2-.23-2.94-.696l.418-1.487a5.113 5.113 0 002.627.696c.685 0 1.219-.153 1.6-.456.383-.303.576-.71.576-1.216 0-.452-.161-.832-.474-1.144-.313-.307-.833-.597-1.564-.859-1.987-.728-2.98-1.795-2.98-3.191 0-.913.349-1.664 1.053-2.247.699-.583 1.628-.877 2.787-.877 1.03 0 1.89.176 2.576.529l-.455 1.456c-.644-.344-1.366-.511-2.18-.511-.64 0-1.146.153-1.505.46a1.314 1.314 0 00-.455 1.009c0 .438.175.804.524 1.09.304.261.851.55 1.647.858.975.389 1.693.836 2.153 1.356.46.525.69 1.171.69 1.94zm6.026-3.57h-2.006v3.9c0 .995.354 1.488 1.063 1.488.326 0 .593-.027.81-.082l.05 1.357c-.359.13-.828.198-1.412.198-.718 0-1.279-.217-1.684-.646-.405-.43-.607-1.153-.607-2.165v-4.05h-1.196v-1.339h1.191v-1.473l1.785-.53V17.4h2.006v1.338zm9.02 2.612c0 1.234-.358 2.251-1.076 3.042-.75.819-1.748 1.226-2.995 1.226-1.2 0-2.157-.394-2.87-1.171-.713-.782-1.067-1.772-1.067-2.961 0-1.248.368-2.265 1.104-3.06.736-.796 1.725-1.19 2.971-1.19 1.201 0 2.167.394 2.894 1.176.694.755 1.04 1.736 1.04 2.938zm-1.881.04c0-.736-.161-1.369-.488-1.893-.381-.637-.924-.959-1.633-.959-.726 0-1.288.322-1.665.959-.326.529-.487 1.17-.487 1.93 0 .737.16 1.37.487 1.899.391.637.943.958 1.652.958.694 0 1.237-.325 1.633-.972.33-.547.501-1.184.501-1.921zm7.792-2.422a3.478 3.478 0 00-.575-.05c-.639 0-1.131.235-1.48.71-.304.42-.456.95-.456 1.587v4.217h-1.817v-5.506c0-.845-.014-1.686-.05-2.531h1.582l.064 1.537h.05c.194-.53.493-.954.911-1.275a2.21 2.21 0 011.316-.43c.17 0 .317.014.455.032v1.709zm8.129 2.066c.004.271-.019.542-.065.809h-5.45c.018.796.284 1.401.79 1.822.46.375 1.054.56 1.785.56.81 0 1.546-.126 2.208-.38l.285 1.24c-.772.33-1.688.496-2.741.496-1.27 0-2.263-.366-2.99-1.098-.722-.732-1.086-1.718-1.086-2.952 0-1.211.336-2.22 1.012-3.024.704-.859 1.66-1.288 2.861-1.288 1.178 0 2.07.429 2.678 1.288.473.682.713 1.528.713 2.527zm-1.73-.461c.014-.53-.106-.986-.354-1.375-.313-.497-.801-.745-1.45-.745-.593 0-1.076.244-1.448.727-.304.385-.483.85-.538 1.388l3.79.005zM37.517 10.347c-.506 0-.943-.022-1.306-.063V4.891a9.781 9.781 0 011.54-.113c2.085 0 3.046 1.008 3.046 2.65-.005 1.898-1.14 2.92-3.28 2.92zm.304-4.877c-.28 0-.52.018-.718.059v4.095c.106.018.313.023.603.023 1.366 0 2.143-.764 2.143-2.193 0-1.274-.703-1.984-2.028-1.984zm5.962 4.918c-1.174 0-1.937-.863-1.937-2.034 0-1.22.777-2.088 2-2.088 1.16 0 1.938.822 1.938 2.025.004 1.234-.8 2.097-2.002 2.097zm.036-3.48c-.644 0-1.058.592-1.058 1.423 0 .814.423 1.406 1.05 1.406.63 0 1.048-.633 1.048-1.424 0-.804-.414-1.406-1.04-1.406zm8.667-.561l-1.256 3.95h-.819l-.52-1.713c-.128-.42-.239-.845-.322-1.274h-.018c-.065.43-.189.863-.322 1.274l-.552 1.714h-.828l-1.182-3.951h.92l.455 1.876c.106.447.198.868.271 1.27h.019a13 13 0 01.331-1.261l.57-1.885h.727l.548 1.844c.133.448.239.886.322 1.302h.023c.06-.407.147-.836.271-1.302l.488-1.844h.874zm4.627 3.95h-.892V8.029c0-.7-.271-1.048-.81-1.048-.529 0-.892.447-.892.967v2.35h-.892v-2.82c0-.348-.01-.723-.033-1.13h.787l.041.61h.023c.24-.42.727-.691 1.274-.691.842 0 1.399.632 1.399 1.668l-.005 2.364zm2.466 0h-.892V4.535h.892v5.764zm3.257.091c-1.173 0-1.937-.863-1.937-2.034 0-1.22.777-2.088 2.001-2.088 1.16 0 1.937.822 1.937 2.025 0 1.234-.8 2.097-2.001 2.097zm.032-3.48c-.644 0-1.058.592-1.058 1.423 0 .814.423 1.406 1.049 1.406.63 0 1.048-.633 1.048-1.424.005-.804-.409-1.406-1.04-1.406zm5.492 3.39l-.064-.457h-.023c-.272.366-.672.543-1.178.543-.722 0-1.233-.498-1.233-1.162 0-.977.86-1.478 2.351-1.478V7.67c0-.52-.28-.782-.832-.782-.396 0-.746.1-1.05.294l-.179-.578c.373-.226.838-.344 1.38-.344 1.05 0 1.583.542 1.583 1.632v1.464c0 .398.018.71.06.945l-.815-.004zm-.124-1.967c-.993 0-1.49.235-1.49.796 0 .416.257.62.612.62.455 0 .878-.34.878-.805v-.61zm5.212 1.967l-.041-.633h-.023c-.258.479-.69.723-1.293.723-.97 0-1.688-.836-1.688-2.016 0-1.234.745-2.106 1.761-2.106.539 0 .92.176 1.132.537h.018V4.534h.893v4.697c0 .38.01.741.032 1.062l-.791.005zm-.133-2.324c0-.551-.373-1.026-.944-1.026-.662 0-1.067.579-1.067 1.388 0 .795.419 1.342 1.05 1.342.56 0 .96-.479.96-1.048v-.656zm6.564 2.414c-1.173 0-1.937-.863-1.937-2.034 0-1.22.778-2.088 2.001-2.088 1.16 0 1.937.822 1.937 2.025.004 1.234-.8 2.097-2.001 2.097zm.032-3.48c-.644 0-1.058.592-1.058 1.423 0 .814.423 1.406 1.049 1.406.63 0 1.049-.633 1.049-1.424.004-.804-.41-1.406-1.04-1.406zm6.776 3.39h-.893v-2.27c0-.7-.271-1.048-.81-1.048-.528 0-.892.447-.892.967v2.35H83.2v-2.82c0-.348-.01-.723-.032-1.13h.786l.042.61h.023c.239-.42.727-.691 1.274-.691.842 0 1.398.632 1.398 1.668v2.364h-.004zm6.012-3.291h-.984v1.917c0 .488.17.732.52.732.156 0 .29-.018.395-.04l.023.664c-.175.063-.405.1-.695.1-.704 0-1.127-.38-1.127-1.384v-1.99h-.58v-.66h.59v-.722l.878-.263v.986h.985l-.005.66zm4.729 3.29h-.893v-2.25c0-.706-.271-1.063-.81-1.063-.464 0-.892.308-.892.936v2.382h-.892V4.534h.892v2.373h.019c.28-.429.69-.641 1.21-.641.85 0 1.37.65 1.37 1.681l-.004 2.35zm4.848-1.762h-2.682c.019.746.52 1.17 1.265 1.17a3.07 3.07 0 001.086-.185l.138.61c-.382.163-.828.245-1.348.245-1.256 0-2-.782-2-1.99 0-1.21.763-2.12 1.899-2.12 1.026 0 1.67.746 1.67 1.876.004.132-.005.263-.028.394zm-.823-.624c0-.61-.313-1.04-.884-1.04-.515 0-.92.439-.975 1.04h1.859z"/></g><defs><clipPath id="clip0"><path fill="#fff" d="M0 0h113.509v32H0z"/></clipPath></defs></svg>