<svg width="114" height="32" fill="none" xmlns="http://www.w3.org/2000/svg"><g clip-path="url(#clip0)" fill="#fff"><path d="M110.239.723c1.399 0 2.54 1.122 2.54 2.496v25.575c0 1.375-1.141 2.478-2.522 2.478H3.295c-1.399 0-2.54-1.122-2.54-2.478V3.219C.736 1.845 1.878.723 3.277.723h106.962zm0-.723H3.277C1.473 0 0 1.429 0 3.22v25.574c0 1.772 1.473 3.201 3.277 3.201h106.962c1.804 0 3.258-1.429 3.258-3.201V3.219C113.515 1.43 112.043 0 110.239 0z"/><path d="M40.213 7.77c0 .67-.17 1.257-.598 1.673-.51.502-1.108.755-1.872.755s-1.362-.253-1.872-.755c-.51-.501-.769-1.09-.769-1.84s.258-1.338.769-1.84c.51-.501 1.108-.754 1.872-.754.34 0 .68.086 1.021.253.34.167.598.334.768.588l-.427.42c-.34-.42-.769-.588-1.362-.588-.51 0-1.021.168-1.362.588-.428.334-.598.836-.598 1.424s.17 1.09.598 1.424c.428.334.851.588 1.362.588.598 0 1.021-.168 1.449-.588.258-.253.428-.588.428-1.004h-1.872v-.669h2.47l-.005.326zm3.92-2.092h-2.3v1.591h2.13v.588h-2.13v1.59h2.3v.67H41.15V5.095h2.981v.583zm2.81 4.439h-.68V5.682h-1.45v-.587h3.579v.587h-1.45v4.435zm3.92 0V5.095h.68v5.022h-.68zm3.578 0h-.68V5.682h-1.45v-.587h3.492v.587h-1.45v4.435h.088zm8.091-.67c-.51.503-1.108.756-1.872.756-.763 0-1.361-.253-1.872-.755-.51-.502-.768-1.09-.768-1.84s.257-1.338.768-1.84c.51-.502 1.109-.755 1.872-.755.768 0 1.362.253 1.872.755s.769 1.09.769 1.84-.258 1.338-.769 1.84zm-3.233-.42c.34.335.85.588 1.361.588.51 0 1.021-.167 1.362-.588.34-.334.598-.836.598-1.423 0-.588-.17-1.09-.598-1.424-.34-.335-.851-.588-1.362-.588-.51 0-1.021.167-1.361.588-.34.334-.599.836-.599 1.424 0 .587.17 1.089.598 1.423zm4.94 1.09V5.095h.768l2.47 3.932V5.095h.681v5.022h-.68l-2.641-4.1v4.1h-.598zM57.85 17.48c-2.043 0-3.662 1.506-3.662 3.599 0 2.007 1.62 3.598 3.662 3.598s3.661-1.505 3.661-3.598c0-2.175-1.619-3.598-3.661-3.598zm0 5.696c-1.109 0-2.043-.922-2.043-2.174 0-1.252.939-2.174 2.043-2.174 1.108 0 2.042.836 2.042 2.174 0 1.252-.934 2.174-2.042 2.174zm-7.922-5.695c-2.042 0-3.661 1.505-3.661 3.598 0 2.007 1.619 3.598 3.661 3.598 2.043 0 3.662-1.505 3.662-3.598 0-2.175-1.62-3.598-3.662-3.598zm0 5.695c-1.108 0-2.042-.922-2.042-2.174 0-1.252.938-2.174 2.042-2.174 1.104 0 2.043.836 2.043 2.174 0 1.252-.939 2.174-2.043 2.174zm-9.457-4.606v1.505h3.661c-.087.837-.427 1.506-.85 1.926-.511.502-1.362 1.09-2.811 1.09-2.3 0-4.002-1.759-4.002-4.02 0-2.26 1.79-4.018 4.002-4.018 1.191 0 2.13.502 2.81 1.09l1.109-1.09c-.938-.836-2.13-1.505-3.832-1.505-3.068 0-5.708 2.513-5.708 5.524 0 3.01 2.64 5.528 5.708 5.528 1.702 0 2.898-.502 3.92-1.59 1.02-1.005 1.361-2.428 1.361-3.518 0-.334 0-.669-.087-.922H40.47zm38.672 1.17c-.34-.835-1.191-2.26-3.068-2.26s-3.409 1.424-3.409 3.599c0 2.007 1.532 3.598 3.579 3.598 1.62 0 2.64-1.003 2.98-1.591l-1.19-.836c-.428.587-.939 1.003-1.79 1.003-.851 0-1.362-.334-1.79-1.09l4.858-2.006-.17-.416zm-4.94 1.176c0-1.338 1.108-2.093 1.872-2.093.598 0 1.191.335 1.361.755l-3.233 1.338zM70.2 24.347h1.619V13.882H70.2v10.465zm-2.558-6.112c-.428-.42-1.109-.836-1.96-.836-1.789 0-3.491 1.591-3.491 3.598a3.498 3.498 0 003.491 3.517c.851 0 1.532-.42 1.873-.836h.087v.502c0 1.338-.768 2.093-1.96 2.093-.938 0-1.619-.67-1.789-1.257l-1.362.588c.428.922 1.45 2.093 3.239 2.093 1.872 0 3.408-1.09 3.408-3.684v-6.365h-1.531l-.005.587zm-1.872 4.941c-1.109 0-2.043-.922-2.043-2.174 0-1.252.939-2.174 2.043-2.174 1.108 0 1.96.922 1.96 2.174 0 1.252-.852 2.174-1.96 2.174zm20.787-9.294h-3.832v10.465h1.62v-3.933h2.212c1.79 0 3.491-1.256 3.491-3.263 0-2.007-1.706-3.269-3.49-3.269zm.083 5.022h-2.3v-3.598h2.3c1.191 0 1.872 1.004 1.872 1.759-.083.922-.764 1.84-1.872 1.84zm9.798-1.505c-1.191 0-2.387.502-2.81 1.591l1.448.588c.34-.588.851-.755 1.45-.755.85 0 1.618.502 1.701 1.338v.086c-.257-.167-.938-.42-1.619-.42-1.532 0-3.068.836-3.068 2.346 0 1.424 1.279 2.346 2.64 2.346 1.109 0 1.62-.502 2.043-1.004h.087v.837h1.532v-4.019c-.17-1.844-1.615-2.934-3.404-2.934zm-.17 5.777c-.51 0-1.28-.253-1.28-.922 0-.836.94-1.09 1.703-1.09.68 0 1.021.168 1.449.335-.17 1.008-1.021 1.677-1.872 1.677zm8.942-5.528l-1.789 4.52h-.088l-1.872-4.52H99.76l2.811 6.36-1.619 3.517h1.619l4.342-9.877h-1.702zm-14.31 6.7h1.619V13.881H90.9v10.465zM8.703 25.617l9.987-9.791-9.987-9.81c-.244.39-.414 1.022-.414 1.93v15.74c0 .91.17 1.538.414 1.931zm1.21-20.292l9.724 9.57 3.271-3.232-10.194-5.425c-1.154-.614-1.872-.908-2.704-.908-.037-.005-.074-.005-.097-.005zm14.227 6.988l-3.555 3.513 3.556 3.494 2.157-1.153c.796-.429 2.006-1.207 2.006-2.341 0-1.153-1.21-1.93-2.006-2.36l-2.157-1.152zm-1.232 7.653l-3.27-3.232-9.725 9.57h.097c.832 0 1.55-.298 2.704-.909l10.194-5.428z"/></g><defs><clipPath id="clip0"><path fill="#fff" d="M0 0h113.509v32H0z"/></clipPath></defs></svg>