<svg width="188" height="53" fill="none" xmlns="http://www.w3.org/2000/svg"><path d="M182.583 1.198c2.317 0 4.207 1.858 4.207 4.134V47.69c0 2.277-1.89 4.104-4.177 4.104H5.458c-2.317 0-4.208-1.857-4.208-4.104V5.332c-.03-2.276 1.86-4.134 4.177-4.134h177.156zm0-1.198H5.427C2.44 0 0 2.367 0 5.332V47.69c0 2.936 2.44 5.302 5.427 5.302h177.156c2.988 0 5.397-2.366 5.397-5.302V5.332C188.01 2.367 185.571 0 182.583 0z" fill="#fff"/><path d="M40.837 25.867c-.039-4.47 3.725-6.648 3.9-6.746-2.133-3.054-5.44-3.474-6.605-3.503-2.781-.285-5.47 1.632-6.887 1.632-1.44 0-3.62-1.603-5.974-1.558-3.024.045-5.85 1.767-7.397 4.433-3.2 5.443-.816 13.439 2.255 17.841 1.531 2.156 3.322 4.56 5.668 4.477 2.293-.09 3.154-1.437 5.92-1.437 2.743 0 3.55 1.437 5.943 1.385 2.46-.038 4.015-2.164 5.493-4.335 1.775-2.47 2.483-4.904 2.514-5.024-.053-.037-4.777-1.804-4.83-7.165zM36.319 12.72c1.234-1.52 2.08-3.579 1.843-5.675-1.782.075-4.022 1.213-5.302 2.695-1.136 1.31-2.156 3.452-1.89 5.466 2.004.15 4.061-.996 5.349-2.486zm37.758 29.409H70.87l-1.76-5.421h-6.103l-1.676 5.42h-3.124l6.05-18.462h3.733l6.087 18.463zm-5.493-7.705l-1.592-4.821c-.168-.494-.488-1.655-.945-3.482h-.053a147.66 147.66 0 01-.892 3.482l-1.562 4.821h5.044zm21.02.884c0 2.26-.625 4.05-1.874 5.368-1.12 1.168-2.514 1.752-4.175 1.752-1.798 0-3.086-.629-3.87-1.887v6.986h-3.01V33.188a85.7 85.7 0 00-.114-4.372h2.651l.168 2.111h.053c1.006-1.587 2.53-2.388 4.571-2.388 1.6 0 2.933.621 4 1.864 1.067 1.243 1.6 2.875 1.6 4.904zm-3.07.105c0-1.296-.297-2.366-.892-3.205-.647-.876-1.523-1.31-2.62-1.31-.74 0-1.418.247-2.02.726a3.371 3.371 0 00-1.18 1.902c-.084.292-.13.599-.138.898v2.224c0 .966.305 1.782.907 2.456.602.666 1.387 1.003 2.354 1.003 1.136 0 2.02-.434 2.652-1.288.624-.868.937-1.999.937-3.406zm18.65-.105c0 2.26-.624 4.05-1.874 5.368-1.12 1.168-2.514 1.752-4.175 1.752-1.798 0-3.085-.629-3.87-1.887v6.986h-3.01V33.188a85.7 85.7 0 00-.114-4.372h2.651l.168 2.111h.053c1.006-1.587 2.53-2.388 4.572-2.388 1.6 0 2.933.621 3.999 1.864 1.067 1.243 1.6 2.875 1.6 4.904zm-3.062.105c0-1.296-.297-2.366-.892-3.205-.647-.876-1.523-1.31-2.62-1.31-.74 0-1.418.247-2.027.726a3.37 3.37 0 00-1.181 1.902c-.091.367-.145.666-.145.898v2.224c0 .966.305 1.782.907 2.456.602.666 1.386 1.003 2.362 1.003 1.135 0 2.019-.434 2.651-1.288.625-.868.945-1.999.945-3.406zm20.486 1.535c0 1.572-.556 2.852-1.668 3.833-1.219 1.078-2.933 1.617-5.12 1.617-2.019 0-3.642-.382-4.868-1.153l.693-2.463c1.318.771 2.773 1.153 4.35 1.153 1.136 0 2.019-.255 2.652-.756.632-.502.952-1.176.952-2.014 0-.75-.267-1.378-.785-1.895-.518-.509-1.379-.988-2.59-1.422-3.291-1.206-4.937-2.972-4.937-5.286 0-1.512.579-2.755 1.745-3.72 1.158-.967 2.697-1.453 4.617-1.453 1.706 0 3.131.292 4.266.876l-.754 2.41c-1.067-.569-2.263-.846-3.611-.846-1.059 0-1.897.255-2.492.764-.503.457-.754 1.01-.754 1.67 0 .726.29 1.332.869 1.804.502.434 1.409.913 2.727 1.422 1.615.644 2.804 1.386 3.566 2.247.762.868 1.142 1.939 1.142 3.212zm9.981-5.915h-3.322v6.461c0 1.647.587 2.463 1.76 2.463.541 0 .983-.045 1.341-.135l.084 2.247c-.594.217-1.371.329-2.339.329-1.189 0-2.118-.36-2.789-1.07-.67-.712-1.005-1.91-1.005-3.587v-6.708h-1.981v-2.216h1.973v-2.441l2.956-.876v3.317h3.322v2.216zm14.94 4.327c0 2.044-.594 3.729-1.782 5.039-1.242 1.355-2.896 2.029-4.96 2.029-1.989 0-3.573-.651-4.754-1.94-1.181-1.294-1.768-2.934-1.768-4.903 0-2.066.61-3.751 1.829-5.069 1.219-1.317 2.857-1.969 4.921-1.969 1.989 0 3.589.651 4.793 1.947 1.15 1.25 1.721 2.875 1.721 4.866zm-3.116.068c0-1.22-.266-2.269-.807-3.137-.633-1.056-1.532-1.588-2.705-1.588-1.204 0-2.133.532-2.758 1.588-.541.876-.807 1.939-.807 3.197 0 1.22.266 2.268.807 3.144.648 1.056 1.562 1.587 2.735 1.587 1.151 0 2.05-.539 2.705-1.61.548-.905.83-1.961.83-3.181zm12.906-4.013a5.764 5.764 0 00-.952-.083c-1.059 0-1.874.39-2.453 1.176-.503.696-.754 1.572-.754 2.628v6.985h-3.01v-9.12c0-1.4-.023-2.792-.084-4.192h2.621l.107 2.546h.084c.32-.876.815-1.58 1.508-2.111a3.66 3.66 0 012.179-.712c.282 0 .526.023.754.053v2.83zm13.463 3.421c.007.45-.031.899-.107 1.34h-9.028c.03 1.318.472 2.321 1.31 3.018.762.621 1.745.928 2.956.928 1.341 0 2.56-.21 3.657-.629l.473 2.051c-1.28.547-2.796.824-4.541.824-2.103 0-3.748-.606-4.952-1.82-1.196-1.212-1.798-2.844-1.798-4.888 0-2.007.556-3.676 1.676-5.009 1.166-1.422 2.75-2.134 4.739-2.134 1.95 0 3.428.712 4.434 2.134.785 1.13 1.181 2.53 1.181 4.185zm-2.865-.764c.023-.875-.175-1.632-.587-2.276-.518-.823-1.325-1.235-2.399-1.235-.983 0-1.783.404-2.4 1.206-.503.636-.8 1.407-.892 2.298l6.278.008zM62.138 17.138c-.838 0-1.561-.038-2.163-.105V8.101a16.202 16.202 0 012.552-.187c3.451 0 5.043 1.67 5.043 4.387-.007 3.145-1.889 4.837-5.432 4.837zm.503-8.078c-.465 0-.86.03-1.188.097v6.783c.175.03.518.037.998.037 2.262 0 3.55-1.265 3.55-3.63 0-2.112-1.166-3.287-3.36-3.287zm9.874 8.145c-1.943 0-3.207-1.43-3.207-3.369 0-2.021 1.287-3.459 3.314-3.459 1.92 0 3.207 1.363 3.207 3.354.008 2.044-1.325 3.474-3.314 3.474zm.061-5.765c-1.067 0-1.752.981-1.752 2.359 0 1.347.7 2.328 1.737 2.328 1.043 0 1.737-1.048 1.737-2.358 0-1.333-.686-2.329-1.722-2.329zm14.354-.928l-2.08 6.544h-1.356l-.861-2.838c-.214-.696-.396-1.4-.534-2.111h-.03c-.107.711-.312 1.43-.533 2.111l-.915 2.838H79.25l-1.958-6.544h1.524l.754 3.107c.175.741.328 1.438.45 2.104h.03c.107-.554.29-1.235.549-2.089l.944-3.122h1.204l.907 3.055c.22.74.396 1.467.533 2.156h.038a19.1 19.1 0 01.45-2.156l.807-3.055h1.448zm7.664 6.544h-1.478v-3.759c0-1.16-.45-1.737-1.34-1.737-.877 0-1.479.741-1.479 1.602v3.894H88.82v-4.672c0-.577-.015-1.198-.053-1.872h1.303l.068 1.01h.038c.397-.696 1.204-1.145 2.11-1.145 1.395 0 2.317 1.048 2.317 2.763l-.008 3.916zm4.084 0H97.2V7.51h1.478v9.546zm5.394.15c-1.943 0-3.208-1.43-3.208-3.37 0-2.021 1.288-3.459 3.315-3.459 1.919 0 3.207 1.363 3.207 3.354 0 2.044-1.326 3.474-3.314 3.474zm.053-5.766c-1.066 0-1.752.981-1.752 2.359 0 1.347.701 2.328 1.737 2.328 1.044 0 1.737-1.048 1.737-2.358.008-1.333-.678-2.329-1.722-2.329zm9.097 5.616l-.107-.757h-.038c-.449.607-1.112.899-1.95.899-1.196 0-2.042-.824-2.042-1.924 0-1.617 1.425-2.448 3.893-2.448v-.12c0-.861-.465-1.295-1.379-1.295-.655 0-1.234.164-1.737.486l-.297-.958c.617-.375 1.387-.57 2.286-.57 1.737 0 2.62.9 2.62 2.704v2.425c0 .66.031 1.176.099 1.565l-1.348-.007zm-.206-3.257c-1.645 0-2.468.39-2.468 1.318 0 .688.426 1.025 1.013 1.025.754 0 1.455-.561 1.455-1.332v-1.011zm8.632 3.257l-.068-1.049h-.038c-.427.794-1.143 1.198-2.141 1.198-1.608 0-2.796-1.385-2.796-3.339 0-2.044 1.234-3.489 2.918-3.489.891 0 1.523.292 1.874.891h.03V7.51h1.478v7.779c0 .629.016 1.228.054 1.76l-1.311.007zm-.221-3.849c0-.913-.617-1.7-1.561-1.7-1.098 0-1.768.96-1.768 2.3 0 1.317.693 2.223 1.737 2.223.93 0 1.592-.794 1.592-1.737v-1.086zm10.872 3.998c-1.942 0-3.207-1.43-3.207-3.369 0-2.021 1.287-3.459 3.314-3.459 1.92 0 3.207 1.363 3.207 3.354.008 2.044-1.325 3.474-3.314 3.474zm.054-5.765c-1.067 0-1.753.981-1.753 2.359 0 1.347.701 2.328 1.737 2.328 1.044 0 1.737-1.048 1.737-2.358.008-1.333-.678-2.329-1.721-2.329zm11.222 5.616h-1.478v-3.759c0-1.16-.45-1.737-1.341-1.737-.876 0-1.478.741-1.478 1.602v3.894H137.8v-4.672c0-.577-.015-1.198-.053-1.872h1.302l.069 1.01h.038c.396-.696 1.204-1.145 2.111-1.145 1.394 0 2.316 1.048 2.316 2.763v3.916h-.008zm9.958-5.45h-1.631v3.174c0 .808.282 1.213.861 1.213.259 0 .48-.03.655-.068l.039 1.1c-.29.106-.671.165-1.151.165-1.166 0-1.867-.629-1.867-2.29v-3.295h-.959v-1.093h.975V9.314l1.455-.434v1.632h1.63l-.007 1.093zm7.832 5.45h-1.478v-3.729c0-1.168-.45-1.76-1.341-1.76-.77 0-1.478.51-1.478 1.55v3.946h-1.478V7.51h1.478v3.93h.03c.465-.71 1.143-1.063 2.004-1.063 1.409 0 2.27 1.078 2.27 2.785l-.007 3.894zm8.03-2.92h-4.442c.031 1.235.861 1.939 2.095 1.939a5.08 5.08 0 001.798-.307l.229 1.01c-.632.27-1.371.405-2.232.405-2.08 0-3.315-1.295-3.315-3.294 0-2.007 1.265-3.512 3.147-3.512 1.699 0 2.766 1.236 2.766 3.107a3.18 3.18 0 01-.046.652zm-1.364-1.034c0-1.01-.518-1.722-1.463-1.722-.853 0-1.523.727-1.615 1.722h3.078z" fill="#fff"/></svg>