<svg width="188" height="53" fill="none" xmlns="http://www.w3.org/2000/svg"><path d="M182.583 1.198c2.317 0 4.207 1.858 4.207 4.134V47.69c0 2.277-1.89 4.104-4.177 4.104H5.458c-2.317 0-4.208-1.857-4.208-4.104V5.332c-.03-2.276 1.86-4.134 4.177-4.134h177.156zm0-1.198H5.427C2.44 0 0 2.367 0 5.332V47.69c0 2.936 2.44 5.302 5.427 5.302h177.156c2.988 0 5.397-2.366 5.397-5.302V5.332C188.01 2.367 185.571 0 182.583 0z" fill="#fff"/><path d="M66.603 12.87c0 1.109-.282 2.082-.99 2.77-.846.832-1.837 1.25-3.101 1.25-1.265 0-2.255-.418-3.101-1.25-.846-.83-1.272-1.804-1.272-3.047 0-1.242.426-2.216 1.272-3.047.846-.83 1.836-1.25 3.1-1.25.565 0 1.128.142 1.692.42.564.276.99.553 1.272.972l-.708.697c-.564-.697-1.272-.974-2.255-.974-.846 0-1.691.277-2.255.974-.709.554-.99 1.385-.99 2.358 0 .973.281 1.804.99 2.358.708.555 1.41.974 2.255.974.99 0 1.691-.277 2.4-.973a2.28 2.28 0 00.708-1.663h-3.1v-1.108h4.09l-.007.54zm6.491-3.466h-3.81v2.635h3.528v.974h-3.527v2.635h3.81v1.108h-4.938V8.438h4.937v.966zm4.655 7.352h-1.127V9.411h-2.4v-.973h5.927v.973h-2.4v7.345zm6.492 0V8.438h1.127v8.318h-1.127zm5.927 0H89.04V9.411h-2.4v-.973h5.783v.973h-2.4v7.345h.145zm13.401-1.108c-.845.831-1.836 1.25-3.101 1.25-1.264 0-2.255-.419-3.1-1.25-.846-.831-1.273-1.804-1.273-3.047s.427-2.216 1.273-3.047c.845-.831 1.836-1.25 3.1-1.25 1.273 0 2.256.419 3.101 1.25.846.83 1.273 1.804 1.273 3.047s-.427 2.216-1.273 3.047zm-5.356-.696c.564.554 1.41.973 2.255.973.846 0 1.692-.277 2.256-.973.563-.554.99-1.385.99-2.359 0-.973-.282-1.804-.99-2.358-.564-.554-1.41-.973-2.256-.973-.845 0-1.691.277-2.255.973a3.318 3.318 0 00-.99 2.358c0 .974.282 1.805.99 2.359zm8.183 1.804V8.438h1.272l4.091 6.514V8.438h1.128v8.318h-1.128l-4.373-6.79v6.79h-.99zM95.813 28.952c-3.383 0-6.064 2.493-6.064 5.96 0 3.324 2.681 5.96 6.064 5.96s6.065-2.494 6.065-5.96c0-3.601-2.682-5.96-6.065-5.96zm0 9.434c-1.836 0-3.383-1.528-3.383-3.602 0-2.073 1.555-3.6 3.383-3.6 1.836 0 3.383 1.384 3.383 3.6 0 2.074-1.547 3.602-3.383 3.602zm-13.12-9.434c-3.382 0-6.064 2.493-6.064 5.96 0 3.324 2.682 5.96 6.065 5.96 3.382 0 6.064-2.494 6.064-5.96 0-3.601-2.682-5.96-6.064-5.96zm0 9.434c-1.835 0-3.382-1.528-3.382-3.602 0-2.073 1.554-3.6 3.383-3.6 1.828 0 3.382 1.384 3.382 3.6 0 2.074-1.554 3.602-3.382 3.602zm-15.663-7.63v2.494h6.064c-.145 1.385-.708 2.493-1.41 3.189-.845.831-2.254 1.804-4.654 1.804-3.81 0-6.629-2.912-6.629-6.656 0-3.743 2.964-6.655 6.629-6.655 1.973 0 3.527.83 4.655 1.804l1.836-1.804c-1.555-1.385-3.528-2.493-6.347-2.493-5.081 0-9.455 4.162-9.455 9.148 0 4.987 4.374 9.157 9.455 9.157 2.82 0 4.8-.831 6.491-2.635 1.692-1.663 2.256-4.02 2.256-5.825 0-.554 0-1.108-.145-1.527H67.03zm64.05 1.94c-.563-1.385-1.973-3.744-5.081-3.744-3.109 0-5.646 2.358-5.646 5.96 0 3.324 2.537 5.96 5.928 5.96 2.681 0 4.373-1.663 4.936-2.636l-1.973-1.385c-.708.973-1.554 1.662-2.963 1.662-1.41 0-2.256-.554-2.964-1.804l8.045-3.325-.282-.688zm-8.182 1.946c0-2.216 1.836-3.466 3.101-3.466.99 0 1.973.554 2.255 1.25l-5.356 2.216zm-6.628 5.683h2.681V22.992h-2.681v17.333zm-4.237-10.123c-.708-.696-1.836-1.385-3.245-1.385-2.964 0-5.783 2.636-5.783 5.96a5.795 5.795 0 005.783 5.825c1.409 0 2.537-.696 3.101-1.385h.144v.83c0 2.217-1.272 3.467-3.245 3.467-1.554 0-2.682-1.108-2.964-2.081l-2.255.973c.709 1.528 2.4 3.467 5.364 3.467 3.1 0 5.645-1.805 5.645-6.102V29.229h-2.537l-.008.973zm-3.1 8.184c-1.836 0-3.383-1.528-3.383-3.602 0-2.073 1.554-3.6 3.383-3.6 1.836 0 3.245 1.527 3.245 3.6 0 2.074-1.409 3.602-3.245 3.602zm34.429-15.394h-6.347v17.333h2.682V33.81h3.665c2.963 0 5.782-2.081 5.782-5.405 0-3.325-2.826-5.413-5.782-5.413zm.137 8.319h-3.809v-5.96h3.809c1.973 0 3.101 1.662 3.101 2.912-.137 1.528-1.265 3.047-3.101 3.047zm16.228-2.494c-1.973 0-3.954.831-4.655 2.636l2.4.973c.563-.973 1.409-1.25 2.4-1.25 1.409 0 2.681.83 2.818 2.216v.142c-.426-.277-1.554-.696-2.681-.696-2.537 0-5.082 1.385-5.082 3.886 0 2.358 2.118 3.885 4.373 3.885 1.836 0 2.682-.83 3.383-1.662h.145v1.385h2.537v-6.656c-.282-3.054-2.675-4.859-5.638-4.859zm-.282 9.569c-.846 0-2.118-.42-2.118-1.528 0-1.385 1.554-1.804 2.819-1.804 1.127 0 1.691.277 2.4.554-.282 1.67-1.692 2.778-3.101 2.778zm14.811-9.157l-2.964 7.487h-.145l-3.101-7.487h-2.818l4.655 10.534-2.682 5.825h2.682l7.192-16.359h-2.819zm-23.702 11.096h2.682V22.992h-2.682v17.333zM14.415 42.428l16.54-16.216-16.54-16.247c-.404.644-.686 1.692-.686 3.197v26.07c0 1.504.282 2.545.686 3.196zM16.419 8.82l16.106 15.85 5.416-5.354-16.883-8.984c-1.912-1.019-3.1-1.505-4.48-1.505-.06-.008-.121-.008-.16-.008zm23.564 11.575l-5.889 5.817 5.89 5.787 3.572-1.909c1.319-.711 3.322-1.999 3.322-3.878 0-1.91-2.004-3.197-3.322-3.908l-3.573-1.91zM37.941 33.07l-5.416-5.353-16.106 15.85h.16c1.378 0 2.567-.495 4.48-1.505L37.94 33.07z" fill="#fff"/></svg>