<svg width="35" height="35" fill="none" xmlns="http://www.w3.org/2000/svg"><path d="M31.172 5.469H3.828A3.832 3.832 0 000 9.297v16.406a3.832 3.832 0 003.828 3.828h27.344A3.832 3.832 0 0035 25.703V9.297a3.832 3.832 0 00-3.828-3.828zM3.828 7.656h27.344c.905 0 1.64.736 1.64 1.64v2.188H2.189V9.297c0-.905.736-1.64 1.64-1.64zm27.344 19.688H3.828c-.904 0-1.64-.736-1.64-1.64V13.671h30.625v12.031c0 .905-.736 1.64-1.641 1.64z" fill="url(#paint0_linear)"/><path d="M7.656 24.063H6.563c-.605 0-1.094-.49-1.094-1.094v-1.094c0-.604.49-1.094 1.093-1.094h1.094c.604 0 1.094.49 1.094 1.094v1.094c0 .604-.49 1.093-1.094 1.093z" fill="url(#paint1_linear)"/><defs><linearGradient id="paint0_linear" x1="0" y1="17.5" x2="35" y2="17.5" gradientUnits="userSpaceOnUse"><stop stop-color="#2D9952"/><stop offset="1" stop-color="#42B198"/></linearGradient><linearGradient id="paint1_linear" x1="5.469" y1="22.422" x2="8.75" y2="22.422" gradientUnits="userSpaceOnUse"><stop stop-color="#2D9952"/><stop offset="1" stop-color="#42B198"/></linearGradient></defs></svg>