<svg width="14" height="10" fill="none" xmlns="http://www.w3.org/2000/svg"><g clip-path="url(#clip0)"><path d="M12.75 10.01c.315 0 .587-.094.82-.281L9.602 6.115a71.84 71.84 0 00-.275.18c-.297.2-.537.355-.722.466a4.63 4.63 0 01-.739.342 2.437 2.437 0 01-.86.174h-.015c-.265 0-.552-.058-.86-.174a4.615 4.615 0 01-.737-.342 18.509 18.509 0 01-.723-.466 34.373 34.373 0 00-.274-.18L.431 9.728c.232.187.505.282.82.282h11.5z" fill="#C4C4C4"/><path d="M12.75 10.01c.315 0 .587-.094.82-.281L9.602 6.115a71.84 71.84 0 00-.275.18c-.297.2-.537.355-.722.466a4.63 4.63 0 01-.739.342 2.437 2.437 0 01-.86.174h-.015c-.265 0-.552-.058-.86-.174a4.615 4.615 0 01-.737-.342 18.509 18.509 0 01-.723-.466 34.373 34.373 0 00-.274-.18L.431 9.728c.232.187.505.282.82.282h11.5z" fill="url(#paint0_linear)"/><path d="M.79 3.84A4.06 4.06 0 010 3.22v5.5l3.496-3.185c-.7-.445-1.6-1.01-2.707-1.694z" fill="#C4C4C4"/><path d="M.79 3.84A4.06 4.06 0 010 3.22v5.5l3.496-3.185c-.7-.445-1.6-1.01-2.707-1.694z" fill="url(#paint1_linear)"/><path d="M13.219 3.84a232.14 232.14 0 00-2.714 1.695L14 8.719V3.22a4.222 4.222 0 01-.781.619z" fill="#C4C4C4"/><path d="M13.219 3.84a232.14 232.14 0 00-2.714 1.695L14 8.719V3.22a4.222 4.222 0 01-.781.619z" fill="url(#paint2_linear)"/><path d="M12.75-.012H1.25c-.4 0-.71.124-.925.37C.108.605 0 .914 0 1.284c0 .298.144.622.43.971.287.349.591.623.914.822.177.114.711.452 1.602 1.014a524.334 524.334 0 012.047 1.3l.116.075.216.142c.169.111.31.201.422.27.111.069.247.146.406.231.159.086.309.15.45.193.14.042.27.064.39.064h.015c.12 0 .25-.022.39-.064.141-.043.291-.107.45-.193a8.49 8.49 0 00.828-.501 53.696 53.696 0 01.332-.218l.791-.5 2.866-1.813c.38-.242.698-.534.953-.875.255-.342.382-.7.382-1.075 0-.313-.124-.581-.37-.804a1.27 1.27 0 00-.88-.335z" fill="#C4C4C4"/><path d="M12.75-.012H1.25c-.4 0-.71.124-.925.37C.108.605 0 .914 0 1.284c0 .298.144.622.43.971.287.349.591.623.914.822.177.114.711.452 1.602 1.014a524.334 524.334 0 012.047 1.3l.116.075.216.142c.169.111.31.201.422.27.111.069.247.146.406.231.159.086.309.15.45.193.14.042.27.064.39.064h.015c.12 0 .25-.022.39-.064.141-.043.291-.107.45-.193a8.49 8.49 0 00.828-.501 53.696 53.696 0 01.332-.218l.791-.5 2.866-1.813c.38-.242.698-.534.953-.875.255-.342.382-.7.382-1.075 0-.313-.124-.581-.37-.804a1.27 1.27 0 00-.88-.335z" fill="url(#paint3_linear)"/></g><defs><linearGradient id="paint0_linear" x1="7" y1="6.114" x2="7" y2="10.011" gradientUnits="userSpaceOnUse"><stop stop-color="#31C093"/><stop offset="1" stop-color="#4E97B0"/></linearGradient><linearGradient id="paint1_linear" x1="1.748" y1="3.221" x2="1.748" y2="8.719" gradientUnits="userSpaceOnUse"><stop stop-color="#31C093"/><stop offset="1" stop-color="#4E97B0"/></linearGradient><linearGradient id="paint2_linear" x1="12.253" y1="3.221" x2="12.253" y2="8.719" gradientUnits="userSpaceOnUse"><stop stop-color="#31C093"/><stop offset="1" stop-color="#4E97B0"/></linearGradient><linearGradient id="paint3_linear" x1="7" y1="-.012" x2="7" y2="6.366" gradientUnits="userSpaceOnUse"><stop stop-color="#31C093"/><stop offset="1" stop-color="#4E97B0"/></linearGradient><clipPath id="clip0"><path fill="#fff" d="M0 0h14v10H0z"/></clipPath></defs></svg>