<svg width="35" height="35" fill="none" xmlns="http://www.w3.org/2000/svg"><path d="M26.434 20.809a4.417 4.417 0 00-4.412 4.411 4.417 4.417 0 004.412 4.412 4.416 4.416 0 004.412-4.412 4.417 4.417 0 00-4.412-4.411zm0 6.617a2.208 2.208 0 01-2.206-2.206c0-1.216.99-2.205 2.206-2.205s2.206.989 2.206 2.205c0 1.217-.99 2.206-2.206 2.206z" fill="url(#paint0_linear)"/><path d="M11.36 20.809a4.417 4.417 0 00-4.41 4.411 4.417 4.417 0 004.412 4.412 4.417 4.417 0 004.411-4.412 4.417 4.417 0 00-4.412-4.411zm0 6.617a2.208 2.208 0 01-2.205-2.206c0-1.216.989-2.205 2.206-2.205 1.216 0 2.205.989 2.205 2.205a2.208 2.208 0 01-2.206 2.206z" fill="url(#paint1_linear)"/><path d="M29.405 8.18a1.104 1.104 0 00-.986-.607H22.61V9.78h5.129l3.003 5.974 1.972-.992-3.31-6.58z" fill="url(#paint2_linear)"/><path d="M23.125 24.154h-8.346v2.206h8.346v-2.206z" fill="url(#paint3_linear)"/><path d="M8.051 24.154H4.228a1.103 1.103 0 100 2.206H8.05a1.103 1.103 0 100-2.206z" fill="url(#paint4_linear)"/><path d="M34.768 17.411l-2.17-2.794a1.101 1.101 0 00-.87-.426h-8.015V6.47c0-.61-.494-1.104-1.103-1.104H4.228a1.103 1.103 0 100 2.206h17.28v7.72c0 .61.493 1.104 1.102 1.104h8.578l1.606 2.069v5.688h-3.051a1.103 1.103 0 100 2.206h4.154c.61 0 1.103-.494 1.103-1.103v-7.17c0-.244-.082-.482-.232-.676z" fill="url(#paint5_linear)"/><path d="M8.12 16.527H3.048a1.103 1.103 0 100 2.206h5.074a1.103 1.103 0 100-2.206z" fill="url(#paint6_linear)"/><path d="M10.515 10.694H1.103a1.103 1.103 0 000 2.206h9.412a1.103 1.103 0 100-2.206z" fill="url(#paint7_linear)"/><defs><linearGradient id="paint0_linear" x1="22.022" y1="25.22" x2="30.846" y2="25.22" gradientUnits="userSpaceOnUse"><stop stop-color="#2D9952"/><stop offset="1" stop-color="#42B198"/></linearGradient><linearGradient id="paint1_linear" x1="6.949" y1="25.22" x2="15.772" y2="25.22" gradientUnits="userSpaceOnUse"><stop stop-color="#2D9952"/><stop offset="1" stop-color="#42B198"/></linearGradient><linearGradient id="paint2_linear" x1="22.61" y1="11.663" x2="32.714" y2="11.663" gradientUnits="userSpaceOnUse"><stop stop-color="#2D9952"/><stop offset="1" stop-color="#42B198"/></linearGradient><linearGradient id="paint3_linear" x1="14.779" y1="25.257" x2="23.125" y2="25.257" gradientUnits="userSpaceOnUse"><stop stop-color="#2D9952"/><stop offset="1" stop-color="#42B198"/></linearGradient><linearGradient id="paint4_linear" x1="3.125" y1="25.257" x2="9.154" y2="25.257" gradientUnits="userSpaceOnUse"><stop stop-color="#2D9952"/><stop offset="1" stop-color="#42B198"/></linearGradient><linearGradient id="paint5_linear" x1="3.125" y1="15.863" x2="35" y2="15.863" gradientUnits="userSpaceOnUse"><stop stop-color="#2D9952"/><stop offset="1" stop-color="#42B198"/></linearGradient><linearGradient id="paint6_linear" x1="1.944" y1="17.63" x2="9.224" y2="17.63" gradientUnits="userSpaceOnUse"><stop stop-color="#2D9952"/><stop offset="1" stop-color="#42B198"/></linearGradient><linearGradient id="paint7_linear" x1="0" y1="11.797" x2="11.618" y2="11.797" gradientUnits="userSpaceOnUse"><stop stop-color="#2D9952"/><stop offset="1" stop-color="#42B198"/></linearGradient></defs></svg>