<svg width="32" height="32" fill="none" xmlns="http://www.w3.org/2000/svg"><path d="M16 32c8.837 0 16-7.163 16-16S24.837 0 16 0 0 7.163 0 16s7.163 16 16 16z" fill="#6F3FAA"/><path d="M24.463 11.243l-.007-.018c-.425-1.732-2.356-3.582-4.125-3.97l-.018-.005a23.006 23.006 0 00-8.625 0l-.02.006c-1.768.387-3.693 2.237-4.124 3.969l-.006.018a16.803 16.803 0 000 7.275l.006.02c.412 1.655 2.194 3.424 3.9 3.912v1.93c0 .7.85 1.045 1.337.538l1.957-2.03c.425.024.85.037 1.275.037 1.443 0 2.88-.138 4.312-.407l.019-.006c1.769-.387 3.7-2.237 4.125-3.969l.006-.018a17.027 17.027 0 00-.012-7.282zm-1.544 6.925c-.288 1.125-1.75 2.532-2.913 2.788a21.409 21.409 0 01-4.587.369.118.118 0 00-.081.03l-1.425 1.463-1.52 1.557a.177.177 0 01-.305-.125v-3.194c0-.05-.038-.1-.088-.106-1.162-.257-2.625-1.663-2.912-2.788a15.347 15.347 0 010-6.575C9.375 10.462 10.838 9.056 12 8.8a21.326 21.326 0 018.013 0c1.162.256 2.625 1.662 2.912 2.787a15.47 15.47 0 01-.006 6.581z" fill="#fff"/><path d="M18.532 19.643c-.182-.056-.35-.093-.507-.156-1.637-.681-3.15-1.556-4.343-2.9-.682-.762-1.213-1.631-1.663-2.544a19.375 19.375 0 01-.575-1.33c-.169-.407.081-.832.338-1.138a2.77 2.77 0 01.893-.675c.263-.125.525-.057.72.168.418.488.8.994 1.112 1.557.193.343.137.768-.207 1-.08.056-.162.125-.237.187a.86.86 0 00-.181.188.532.532 0 00-.038.456c.425 1.175 1.144 2.087 2.325 2.575.188.081.381.169.594.144.362-.044.481-.444.737-.65.25-.207.57-.207.838-.038.269.169.531.35.787.538.257.18.507.356.744.562.225.2.306.456.175.731-.231.494-.569.907-1.056 1.17-.138.087-.3.112-.456.155.156-.043-.182-.05 0 0zm-2.526-9.306c2.144.062 3.907 1.481 4.282 3.606.062.363.087.731.118 1.1.013.156-.075.3-.243.3-.175 0-.25-.144-.263-.294-.025-.306-.037-.612-.081-.912a3.824 3.824 0 00-3.088-3.2c-.237-.044-.481-.056-.725-.081-.156-.02-.356-.025-.387-.22-.031-.162.106-.287.256-.293.044-.006.088-.006.131-.006-.043 0 2.144.062 0 0z" fill="#fff"/><path d="M19.262 14.562c-.006.025-.006.088-.018.15-.056.213-.381.244-.456.025-.026-.062-.026-.137-.026-.206 0-.456-.1-.906-.33-1.3a2.425 2.425 0 00-1.02-.956 3.064 3.064 0 00-.812-.25c-.125-.019-.244-.031-.369-.05-.15-.019-.231-.113-.219-.263.007-.137.107-.237.257-.225.494.025.969.132 1.406.37.887.468 1.4 1.212 1.544 2.205.006.044.018.088.018.138a4.99 4.99 0 01.026.362z" fill="#fff"/><path d="M17.931 14.512c-.18.006-.275-.094-.293-.262-.013-.113-.025-.232-.05-.344a.951.951 0 00-.357-.556.87.87 0 00-.287-.138c-.131-.037-.269-.025-.4-.062-.144-.038-.219-.15-.2-.282a.254.254 0 01.269-.206c.83.063 1.425.488 1.512 1.469a.758.758 0 010 .206c-.031.113-.112.169-.194.175.082-.006-.18 0 0 0zm.6 5.132c.156-.044-.181-.05 0 0zm-2.524-9.306c.125.006 2.056.064 0 0zm3.256 4.225c-.007-.144 0 .025 0 0z" fill="#fff"/></svg>