<svg width="32" height="32" fill="none" xmlns="http://www.w3.org/2000/svg"><path d="M16.004 0h-.008C7.174 0 0 7.176 0 16c0 3.5 1.128 6.744 3.046 9.378l-1.994 5.944 6.15-1.966A15.862 15.862 0 0016.004 32C24.826 32 32 24.822 32 16S24.826 0 16.004 0z" fill="#4CAF50"/><path d="M23.732 21.123c-.306.865-1.518 1.583-2.486 1.792-.662.142-1.526.254-4.436-.955-3.722-1.546-6.12-5.338-6.306-5.584C10.325 16.13 9 14.368 9 12.546s.923-2.71 1.295-3.09c.306-.313.81-.456 1.295-.456.157 0 .298.008.425.014.371.016.558.038.804.627.305.738 1.05 2.56 1.138 2.748.09.187.18.441.054.687-.119.254-.223.367-.41.583-.187.215-.364.38-.551.612-.171.202-.364.418-.149.79.215.366.96 1.583 2.055 2.56 1.414 1.263 2.56 1.666 2.97 1.837.306.127.67.097.893-.14.284-.307.633-.815.99-1.315.253-.359.573-.403.908-.276.342.119 2.152 1.015 2.524 1.201.372.188.617.276.708.434.088.157.088.895-.217 1.761z" fill="#FAFAFA"/></svg>